<?xml version="1.0" encoding="UTF-8"?>
<svg version="1.1" xmlns="http://www.w3.org/2000/svg" width="1024" height="1024">
<path d="M0 0 C337.92 0 675.84 0 1024 0 C1024 337.92 1024 675.84 1024 1024 C686.08 1024 348.16 1024 0 1024 C0 686.08 0 348.16 0 0 Z " fill="#010E27" transform="translate(0,0)"/>
<path d="M0 0 C1.24262952 -0.00467997 2.48525904 -0.00935994 3.765544 -0.01418173 C7.17540077 -0.02399774 10.58475376 -0.02057367 13.99457872 -0.01122308 C17.68723903 -0.00438607 21.37985791 -0.01493672 25.07250977 -0.02316284 C32.29115421 -0.03645353 39.5097047 -0.03364323 46.72835272 -0.02492492 C52.59940239 -0.0181298 58.47042587 -0.01723953 64.34147835 -0.02049637 C65.17938468 -0.02095607 66.017291 -0.02141577 66.88058843 -0.0218894 C68.58317626 -0.02284864 70.28576408 -0.02382129 71.98835189 -0.02480717 C87.92757165 -0.03334754 103.86673952 -0.02354849 119.80595077 -0.00740607 C133.45900313 0.00599342 147.11197893 0.00366943 160.76502991 -0.01016235 C176.64847957 -0.02624637 192.53188382 -0.03252111 208.41534048 -0.02332556 C210.11171789 -0.02236999 211.80809531 -0.02142688 213.50447273 -0.02049637 C214.7561998 -0.01980213 214.7561998 -0.01980213 216.03321428 -0.01909386 C221.89130418 -0.01651225 227.74936508 -0.02085709 233.60745049 -0.02793503 C240.75505438 -0.03638177 247.90255954 -0.03400368 255.05015223 -0.0180928 C258.69143631 -0.01025215 262.33255625 -0.00704581 265.97383881 -0.01704025 C269.93357812 -0.02774372 273.89305341 -0.01489437 277.8527832 0 C278.98598415 -0.00669217 280.11918509 -0.01338433 281.28672546 -0.02027929 C301.78822812 0.12839215 318.26994979 7.14545157 333.17738342 21.00595093 C345.38300082 33.67728346 350.62663613 49.37592685 350.50454712 66.76397705 C350.51149265 68.04673653 350.51843818 69.329496 350.52559417 70.65112698 C350.54405436 74.1730266 350.53797487 77.69450099 350.52744114 81.21641707 C350.52040126 85.02977152 350.53648315 88.84304275 350.54943848 92.65637207 C350.5710046 100.11199012 350.57097057 107.56745509 350.56281293 115.02309404 C350.55649528 121.08722011 350.55766609 127.15130177 350.56408501 133.2154274 C350.56498666 134.08079862 350.56588832 134.94616983 350.56681729 135.83776442 C350.56866863 137.59615652 350.57053119 139.35454861 350.57240485 141.11294068 C350.58895778 157.57678326 350.58028571 174.04053998 350.56341927 190.50437738 C350.54872678 205.54109971 350.56334881 220.57762213 350.59218944 235.61431871 C350.62163694 251.08356422 350.63254 266.55271765 350.62300724 282.02198994 C350.62198477 283.77427425 350.62099015 285.52655858 350.62002373 287.27884293 C350.61954734 288.14082803 350.61907095 289.00281313 350.61858012 289.89091899 C350.61642293 295.94092468 350.62618296 301.99084249 350.64079475 308.0408287 C350.65837836 315.42377935 350.65811488 322.80647537 350.6354431 330.18941627 C350.62435489 333.95041567 350.62101363 337.71096748 350.6397438 341.47194672 C350.75480682 366.41243018 348.06514226 383.96347548 329.98988342 402.38095093 C329.37500061 403.02032593 328.7601178 403.65970093 328.12660217 404.31845093 C315.43160187 416.49695229 298.62801885 419.85585483 281.63136292 419.76863098 C279.71123233 419.77670929 279.71123233 419.77670929 277.75231123 419.78495079 C274.23801327 419.79927529 270.7239524 419.795202 267.20964217 419.78778398 C263.40452038 419.78302213 259.59944769 419.7955885 255.79434204 419.80580139 C248.35545815 419.82293501 240.91665892 419.82384089 233.47776043 419.81858849 C227.42840224 419.81453601 221.37906893 419.81600309 215.32971191 419.82133675 C214.46653861 419.82208517 213.60336531 419.82283359 212.71403524 419.82360469 C210.96014869 419.82513627 209.20626214 419.82667462 207.45237559 419.82821966 C191.03200494 419.84192458 174.61168203 419.83652076 158.19131249 419.82503445 C143.18883271 419.8151003 128.18647622 419.82804944 113.18401545 419.85196864 C97.75320897 419.87638417 82.32245986 419.88596172 66.89163446 419.87931591 C58.23883635 419.87582964 49.58613306 419.87801676 40.93334961 419.89556694 C33.56903987 419.91031949 26.20489178 419.9108844 18.84058511 419.89349603 C15.08798925 419.88500941 11.33568177 419.88277876 7.58310127 419.89814758 C3.50463731 419.91464356 -0.57313684 419.8997894 -4.65159607 419.88215637 C-5.82272839 419.89176138 -6.99386071 419.90136639 -8.20048189 419.91126245 C-25.48437776 419.75819093 -41.69581315 412.418321 -54.01011658 400.38095093 C-66.43347813 386.23802611 -71.49839413 370.90251141 -71.3910675 352.24984741 C-71.39574748 350.98215987 -71.40042745 349.71447233 -71.40524924 348.40837002 C-71.41766675 344.92407875 -71.41163161 341.44003688 -71.40229058 337.95574522 C-71.39546208 334.18471382 -71.40600003 330.41372329 -71.41423035 326.6427002 C-71.42752958 319.26884637 -71.424707 311.89508446 -71.41599242 304.52122712 C-71.40920123 298.52523183 -71.40830535 292.5292622 -71.41156387 286.53326416 C-71.41202357 285.67799273 -71.41248327 284.8227213 -71.4129569 283.94153255 C-71.41391613 282.20374973 -71.41488877 280.46596691 -71.41587467 278.7281841 C-71.42441741 262.45520468 -71.41461199 246.18227606 -71.39847358 229.90930498 C-71.38507141 215.9639558 -71.38739982 202.01868156 -71.40122986 188.07333374 C-71.41730543 171.85627161 -71.42359354 155.63925393 -71.41439307 139.42218494 C-71.41343748 137.69100253 -71.41249437 135.95982012 -71.41156387 134.2286377 C-71.41110105 133.37699191 -71.41063822 132.52534613 -71.41016137 131.64789289 C-71.40757741 125.6631392 -71.41192963 119.67841385 -71.41900253 113.69366455 C-71.42743974 106.39446507 -71.4250909 99.0953623 -71.4091603 91.79617381 C-71.40130734 88.07616021 -71.39813479 84.35630752 -71.40810776 80.63629532 C-71.41877841 76.59474324 -71.40598781 72.55359307 -71.3910675 68.51205444 C-71.39775967 67.34900001 -71.40445184 66.18594557 -71.41134679 64.98764706 C-71.28294614 46.99365068 -64.44514204 31.62066389 -51.79136658 18.96688843 C-37.26070963 5.45664278 -19.59416195 -0.1154868 0 0 Z " fill="#0690F6" transform="translate(373.01011657714844,301.6190490722656)"/>
<path d="M0 0 C18.34228009 15.13875173 30.85485029 36.97144578 34.24951172 60.60498047 C35.12310288 75.85245991 35.48968224 91.10832452 30.24951172 105.60498047 C29.89888672 106.63751953 29.54826172 107.67005859 29.18701172 108.73388672 C21.3115106 129.70787753 4.3623231 144.66557123 -11.12719727 160.11206055 C-13.47613425 162.45553778 -15.81954988 164.80444467 -18.16259766 167.15380859 C-19.65381276 168.64436453 -21.14533716 170.13461112 -22.63720703 171.62451172 C-23.33810959 172.32743851 -24.03901215 173.0303653 -24.76115417 173.7545929 C-25.72400078 174.71271126 -25.72400078 174.71271126 -26.70629883 175.69018555 C-27.27189011 176.25498123 -27.83748138 176.81977692 -28.42021179 177.40168762 C-29.75048828 178.60498047 -29.75048828 178.60498047 -30.75048828 178.60498047 C-30.84845703 177.37005859 -30.94642578 176.13513672 -31.04736328 174.86279297 C-32.15678225 161.94396856 -33.9636245 149.28642785 -37.93798828 136.90576172 C-38.79713878 133.4154628 -38.81864921 131.97810341 -37.75048828 128.60498047 C-35.91210938 126.37597656 -35.91210938 126.37597656 -33.52392578 124.12841797 C-32.65638672 123.29181641 -31.78884766 122.45521484 -30.89501953 121.59326172 C-29.07276276 119.8738121 -27.2498635 118.15504308 -25.42626953 116.43701172 C-14.64595412 106.03773839 -6.47726015 93.58273992 -5.54736328 78.25732422 C-5.3281996 60.88860277 -10.14995982 46.57911509 -22.37158203 33.81982422 C-36.58004053 20.59125941 -51.96058252 16.84306727 -70.76416016 17.50878906 C-92.20330895 18.54701726 -106.66031803 36.35039536 -120.77001953 50.42138672 C-121.47172461 51.12026442 -122.17342968 51.81914211 -122.89639854 52.53919792 C-126.60069109 56.22860814 -130.30218393 59.92079906 -134.0012207 63.61547852 C-137.80498146 67.41373101 -141.61795416 71.20259464 -145.43311024 74.9893961 C-148.38506636 77.92268827 -151.33025405 80.8627062 -154.27365685 83.80457878 C-155.67650325 85.20441315 -157.08183292 86.60176376 -158.48975563 87.99649239 C-160.45862258 89.94819931 -162.41769112 91.90927072 -164.37475586 93.87280273 C-164.94886703 94.43769913 -165.52297821 95.00259552 -166.11448669 95.58460999 C-174.46700635 104.02337637 -178.82322436 113.00185919 -179.18798828 124.91748047 C-178.93228474 136.02390811 -175.55952445 144.90015697 -168.75048828 153.60498047 C-168.16396484 154.36681641 -167.57744141 155.12865234 -166.97314453 155.91357422 C-156.65098041 168.43104523 -141.90115948 174.33840673 -126.13061523 176.44189453 C-123.01150397 176.90978078 -120.88934018 177.50837827 -118.28564453 179.31982422 C-116.22208695 182.39153207 -116.28027553 183.9432297 -116.75048828 187.60498047 C-118.39352571 189.90617175 -119.90027791 191.71391574 -121.86767578 193.69482422 C-122.39886017 194.24360733 -122.93004456 194.79239044 -123.47732544 195.35780334 C-124.60444394 196.51085946 -125.73967136 197.65603736 -126.88232422 198.79370117 C-128.61615558 200.5331177 -130.29968791 202.31268738 -131.98486328 204.09912109 C-139.85323547 212.18099471 -139.85323547 212.18099471 -144.52539062 213.22509766 C-147.15445569 213.01694448 -149.27208603 212.49234609 -151.75048828 211.60498047 C-152.4370752 211.41379639 -153.12366211 211.2226123 -153.83105469 211.02563477 C-155.81282984 210.4386509 -157.70473164 209.74206899 -159.62548828 208.97998047 C-160.30893311 208.71419189 -160.99237793 208.44840332 -161.6965332 208.17456055 C-172.70818818 203.75162516 -181.88097654 197.44348208 -190.75048828 189.60498047 C-191.37439453 189.06486328 -191.99830078 188.52474609 -192.64111328 187.96826172 C-207.94659874 173.77135114 -218.05650599 152.54960171 -219.12939453 131.78466797 C-219.804468 109.07748845 -213.58569876 89.09805315 -198.75048828 71.60498047 C-196.27108291 68.99281954 -193.7349531 66.46285815 -191.14501953 63.96044922 C-188.33898565 61.20019077 -185.78054289 58.28197335 -183.21533203 55.30029297 C-181.48043634 53.29244035 -179.73524535 51.36920897 -177.75048828 49.60498047 C-177.09048828 49.60498047 -176.43048828 49.60498047 -175.75048828 49.60498047 C-175.50265594 49.03281296 -175.25482361 48.46064545 -174.9994812 47.87113953 C-173.55444099 45.24927442 -171.87700131 43.4702793 -169.76660156 41.34643555 C-168.94459259 40.51489456 -168.12258362 39.68335358 -167.27566528 38.82661438 C-166.38306 37.9349205 -165.49045471 37.04322662 -164.57080078 36.12451172 C-163.64766083 35.19708664 -162.72452087 34.26966156 -161.77340698 33.31413269 C-159.81473785 31.34800368 -157.85224198 29.3857913 -155.88720703 27.42602539 C-153.40012152 24.94467861 -150.92446471 22.45228274 -148.45195198 19.95642567 C-146.06111574 17.54706006 -143.65906091 15.14898871 -141.25830078 12.74951172 C-140.38593781 11.867939 -139.51357483 10.98636627 -138.61477661 10.07807922 C-100.40773544 -27.85013931 -42.8414579 -34.14171415 0 0 Z " fill="#020E26" transform="translate(642.75048828125,359.39501953125)"/>
<path d="M0 0 C2.6628418 0.91259766 2.6628418 0.91259766 5.08203125 1.98046875 C6.40423902 2.40326504 7.72708634 2.82407044 9.05078125 3.2421875 C35.04067874 13.73589611 53.43208836 32.46108066 64.89453125 57.91796875 C72.02821993 76.13779524 72.63024416 96.9012919 65.20410156 115.13623047 C63.08648571 119.89492989 60.66981953 124.46273729 58.08203125 128.98046875 C57.59863281 129.83125 57.11523438 130.68203125 56.6171875 131.55859375 C49.38064734 143.22095992 38.29169234 152.94945877 28.65234375 162.6484375 C28.08289913 163.22195765 27.51345451 163.79547779 26.926754 164.38637733 C23.91906711 167.41468965 20.90828206 170.43988256 17.89501953 173.46264648 C14.82194461 176.54681518 11.76075358 179.6425095 8.7019825 182.74085522 C6.3097984 185.15940862 3.90855551 187.56881956 1.50494003 189.97600746 C0.37347075 191.1122799 -0.75468469 192.2518641 -1.87911606 193.39510155 C-11.35197333 203.01665431 -21.47946769 211.30267265 -33.73046875 217.23046875 C-34.71551392 217.71495483 -34.71551392 217.71495483 -35.72045898 218.20922852 C-59.53597668 229.53608661 -87.44028636 230.56231885 -112.2265625 221.8125 C-115.19156602 220.64538396 -118.04998779 219.36767656 -120.91796875 217.98046875 C-121.81644531 217.55121094 -122.71492188 217.12195313 -123.640625 216.6796875 C-146.13089752 205.19185046 -163.12967113 185.55029049 -171.91796875 161.98046875 C-180.52662408 135.34504099 -178.67875027 108.20247074 -166.11816406 83.2409668 C-162.43088663 76.14820241 -158.18696522 70.01422311 -152.91796875 63.98046875 C-152.29905762 63.27140381 -151.68014648 62.56233887 -151.04248047 61.83178711 C-144.87015288 54.87797168 -138.38688712 48.26319952 -131.81323242 41.69042969 C-129.95398132 39.82894956 -128.10293036 37.95954721 -126.25195312 36.08984375 C-125.06949793 34.90446141 -123.88657313 33.71954728 -122.703125 32.53515625 C-122.15108902 31.97593475 -121.59905304 31.41671326 -121.0302887 30.84054565 C-117.14684682 26.98046875 -117.14684682 26.98046875 -114.91796875 26.98046875 C-114.92844238 27.53283203 -114.93891602 28.08519531 -114.94970703 28.65429688 C-115.46430713 48.52523924 -115.46430713 48.52523924 -111.6953125 67.9140625 C-110.53111887 71.68625733 -109.72022556 74.9851574 -109.91796875 78.98046875 C-112.87829931 83.04316016 -116.3879894 85.78364681 -120.38671875 88.7734375 C-129.23882039 95.75124211 -134.95422357 108.40244528 -136.671875 119.328125 C-138.27308679 136.58562989 -134.71088738 151.30103686 -124.16796875 165.23046875 C-114.75194658 176.35849495 -101.50333807 184.82764671 -86.91796875 186.98046875 C-70.96624793 188.26240565 -54.85380016 186.28572811 -42.14840698 175.66542053 C-41.2175528 174.79622482 -40.28669861 173.92702911 -39.32763672 173.03149414 C-38.81304838 172.55203622 -38.29846004 172.0725783 -37.76827812 171.57859135 C-31.86311493 166.04676099 -26.10224027 160.36731592 -20.36328125 154.6640625 C-19.5139332 153.82082774 -19.5139332 153.82082774 -18.64742661 152.96055794 C-15.6614833 149.99522523 -12.67864715 147.02680684 -9.69824219 144.0559082 C-6.64738871 141.01618662 -3.58500548 137.98835321 -0.5200367 134.96287441 C1.86488774 132.60421547 4.24076795 130.23659773 6.6143837 127.8665638 C7.73919102 126.74658095 8.86733133 125.62993382 9.99905014 124.51693535 C20.79731447 113.88657866 28.96845636 103.42298172 29.58203125 87.79296875 C29.30394929 75.73872012 25.22378754 65.79334595 17.08203125 56.98046875 C16.55996094 56.36816406 16.03789063 55.75585938 15.5 55.125 C5.27236417 43.8522043 -9.38018239 39.50577955 -24.16796875 38.54296875 C-27.91796875 37.98046875 -27.91796875 37.98046875 -30.98046875 35.79296875 C-33.34850564 32.35549584 -33.50949551 31.08552192 -32.91796875 26.98046875 C-31.14836455 24.52923784 -29.49463224 22.55115796 -27.3984375 20.41796875 C-26.8252327 19.82242187 -26.25202789 19.226875 -25.66145325 18.61328125 C-24.44458145 17.36171344 -23.21938469 16.11819334 -21.98657227 14.88232422 C-20.11501759 12.99012293 -18.29997377 11.0533203 -16.48242188 9.109375 C-6.59471691 -1.10818906 -6.59471691 -1.10818906 0 0 Z " fill="#020E26" transform="translate(520.91796875,445.01953125)"/>
<path d="M0 0 C1.25039074 -0.00397441 2.50078149 -0.00794881 3.78906286 -0.01204365 C7.22007006 -0.0225214 10.65081258 -0.01457372 14.08180785 -0.00329316 C17.79674703 0.00561591 21.51165404 -0.00291351 25.22659302 -0.00915527 C32.48566822 -0.01860374 39.74464345 -0.01207984 47.00371118 0.00010767 C55.45946201 0.01377291 63.91518941 0.01208606 72.37094848 0.00997434 C87.45218396 0.00679074 102.53337207 0.01841979 117.61459351 0.03804016 C132.25002482 0.05707553 146.8854007 0.06411813 161.52084351 0.05854797 C177.47266896 0.05249475 193.42447011 0.05265626 209.37629354 0.06403381 C211.07556303 0.06524109 212.77483253 0.06644707 214.47410202 0.06765175 C215.31013457 0.06825529 216.14616711 0.06885883 217.00753397 0.06948065 C222.90384569 0.07336274 228.80014835 0.07296519 234.69646072 0.0710659 C241.87254358 0.06894746 249.04857785 0.0741423 256.224647 0.08867946 C259.8868125 0.09593769 263.54890712 0.09998819 267.21107864 0.0954361 C271.17462117 0.09062898 275.13803399 0.10124585 279.1015625 0.11352539 C280.8494258 0.10785641 280.8494258 0.10785641 282.63259947 0.10207289 C283.68950779 0.10790509 284.7464161 0.11373728 285.83535194 0.11974621 C286.75064568 0.12061299 287.66593942 0.12147976 288.60896933 0.12237281 C290.91586304 0.3742218 290.91586304 0.3742218 293.91586304 2.3742218 C293.27087201 2.37595805 292.62588099 2.3776943 291.96134478 2.37948316 C253.77465793 2.48240395 215.58798886 2.59049312 177.40133593 2.70533874 C172.82113609 2.71910911 168.24093613 2.73283609 163.66073608 2.74653625 C162.74886089 2.74926456 161.83698569 2.75199286 160.89747792 2.75480384 C146.1124478 2.79893663 131.32740999 2.83955031 116.54236639 2.87887441 C101.38323339 2.91927141 86.22411473 2.96342475 71.06500286 3.01110035 C61.70323109 3.04042379 52.34146045 3.06678085 42.97967004 3.08940078 C36.56896038 3.10517035 30.15826828 3.12457267 23.74757809 3.14689022 C20.04324264 3.15967701 16.33892079 3.17080615 12.63456917 3.17764091 C8.62804824 3.18507481 4.6215934 3.20012972 0.61509705 3.21600342 C-0.56872934 3.21698152 -1.75255573 3.21795963 -2.97225565 3.21896738 C-4.03668235 3.22444182 -5.10110905 3.22991627 -6.1977911 3.2355566 C-7.58699793 3.23954367 -7.58699793 3.23954367 -9.00426954 3.24361128 C-11.07377828 3.14339666 -11.07377828 3.14339666 -12.08413696 4.3742218 C-14.88788967 4.86926642 -17.69952507 5.27473379 -20.51773071 5.6789093 C-23.41833388 6.16263732 -23.41833388 6.16263732 -25.08413696 9.3742218 C-26.07413696 9.0442218 -27.06413696 8.7142218 -28.08413696 8.3742218 C-30.27399968 9.13153626 -30.27399968 9.13153626 -32.52163696 10.3117218 C-35.87907293 11.98759931 -37.16264528 12.3742218 -41.08413696 12.3742218 C-41.33163696 12.9517218 -41.57913696 13.5292218 -41.83413696 14.1242218 C-43.26713685 16.70362159 -44.86838373 18.43543772 -47.08413696 20.3742218 C-47.74413696 20.3742218 -48.40413696 20.3742218 -49.08413696 20.3742218 C-49.08413696 21.0342218 -49.08413696 21.6942218 -49.08413696 22.3742218 C-49.83308228 22.95301086 -50.58202759 23.53179993 -51.35366821 24.12812805 C-54.37997257 26.61757727 -55.8616174 28.90802402 -57.77163696 32.3117218 C-58.35300415 33.33137024 -58.93437134 34.35101868 -59.53335571 35.40156555 C-60.90190924 38.02491374 -62.0223019 40.61717639 -63.08413696 43.3742218 C-63.59976196 44.3848468 -64.11538696 45.3954718 -64.64663696 46.4367218 C-65.81958995 48.83362573 -66.51287729 50.80355326 -67.08413696 53.3742218 C-67.57913696 53.8692218 -67.57913696 53.8692218 -68.08413696 54.3742218 C-68.18637013 56.04737283 -68.21812918 57.72485906 -68.22280216 59.401124 C-68.22827661 60.49690126 -68.23375105 61.59267852 -68.23939139 62.72166115 C-68.24036949 63.94050607 -68.2413476 65.159351 -68.24235535 66.41513062 C-68.24729332 67.69822048 -68.2522313 68.98131035 -68.25731891 70.30328172 C-68.27095349 73.88111332 -68.27833368 77.45893536 -68.28474557 81.0367862 C-68.29272627 84.88889513 -68.306432 88.74098404 -68.31945801 92.59307861 C-68.34125396 99.2725366 -68.35938699 105.95199659 -68.37506294 112.63147163 C-68.39773325 122.28898348 -68.42587995 131.94647318 -68.45538222 141.60396629 C-68.50309303 157.270946 -68.54634773 172.93793474 -68.58682251 188.60493469 C-68.62615971 203.82792362 -68.66758165 219.05090451 -68.71182251 234.27388 C-68.71454678 235.21153389 -68.71727105 236.14918778 -68.72007788 237.11525542 C-68.73375706 241.81898326 -68.7474774 246.52271098 -68.76121819 251.22643864 C-68.87523776 290.27568299 -68.98203496 329.32494458 -69.08413696 368.3742218 C-71.29493331 365.05802728 -71.33503243 364.05525077 -71.33861256 360.19721317 C-71.34444475 359.11878779 -71.35027694 358.0403624 -71.35628587 356.92925745 C-71.35250655 355.73998744 -71.34872722 354.55071743 -71.34483337 353.32540894 C-71.34865892 352.06541122 -71.35248447 350.8054135 -71.35642594 349.50723404 C-71.3667459 346.00266048 -71.36451395 342.49818876 -71.36024535 338.99360669 C-71.35778514 335.21628716 -71.36678381 331.4389926 -71.37428284 327.66168213 C-71.38705448 320.25653577 -71.38882023 312.85142563 -71.38648257 305.44627012 C-71.38470094 299.42431937 -71.38644576 293.40237964 -71.39070702 287.38043022 C-71.3913022 286.52393938 -71.39189739 285.66744854 -71.39251062 284.78500343 C-71.39372237 283.04504681 -71.3949365 281.30509019 -71.396153 279.56513356 C-71.40703935 263.23211861 -71.40486167 246.89912428 -71.39876815 230.56610816 C-71.39360577 215.63670345 -71.40483451 200.70736413 -71.42386637 185.77797235 C-71.4432615 170.44580499 -71.45149734 155.11366853 -71.44774312 139.78148884 C-71.44583262 131.17497829 -71.44830328 122.56852331 -71.46245766 113.96202278 C-71.47439425 106.62967354 -71.47575137 99.29741399 -71.46366749 91.96506346 C-71.45779291 88.22688082 -71.45663946 84.48886203 -71.46866989 80.75069046 C-71.4815889 76.68896066 -71.47102948 72.62761803 -71.45835876 68.56588745 C-71.46573305 67.39669394 -71.47310733 66.22750042 -71.48070508 65.0228768 C-71.36289708 47.00979317 -64.53344126 31.6282136 -51.86538696 18.9601593 C-37.30810083 5.4251545 -19.62606945 -0.12662857 0 0 Z " fill="#0FAEE2" transform="translate(373.0841369628906,301.6257781982422)"/>
<path d="M0 0 C3.06881816 1.71904752 5.40357084 3.80714167 7 7 C7.11553689 8.63227067 7.1695231 10.26908544 7.19287109 11.90527344 C7.21696548 13.43761627 7.21696548 13.43761627 7.24154663 15.00091553 C7.28597741 19.67996598 7.32706881 24.35887384 7.35009766 29.03808594 C7.36665182 31.50562983 7.39393434 33.97312588 7.43212891 36.44042969 C7.4869113 39.99699806 7.50877575 43.55244144 7.5234375 47.109375 C7.54610687 48.2095697 7.56877625 49.3097644 7.59213257 50.44329834 C7.56856581 58.99478212 7.56856581 58.99478212 4.59228516 62.68066406 C0.54317869 66.30342837 -2.2181787 66.39746166 -7.51953125 66.3515625 C-10 66 -10 66 -13 63.75 C-15.87278466 59.79992109 -17.24511855 57.15322939 -17.29052734 52.23486328 C-17.30328705 51.29353546 -17.31604675 50.35220764 -17.32919312 49.38235474 C-17.33141876 48.3718808 -17.33364441 47.36140686 -17.3359375 46.3203125 C-17.3425943 45.27479218 -17.3492511 44.22927185 -17.35610962 43.15206909 C-17.36622977 40.94140379 -17.37092684 38.73070798 -17.37060547 36.52001953 C-17.37497496 33.14434244 -17.4112924 29.76997675 -17.44921875 26.39453125 C-17.4550878 24.24479613 -17.4590566 22.09505481 -17.4609375 19.9453125 C-17.47530853 18.93888702 -17.48967957 17.93246155 -17.50448608 16.89553833 C-17.45764329 9.68151873 -16.13209636 6.48010707 -11.3125 1.125 C-7.59020323 -0.68584708 -4.04418256 -0.76965412 0 0 Z " fill="#13C0F9" transform="translate(442,211)"/>
<path d="M0 0 C3.06881816 1.71904752 5.40357084 3.80714167 7 7 C7.11553689 8.63227067 7.1695231 10.26908544 7.19287109 11.90527344 C7.21696548 13.43761627 7.21696548 13.43761627 7.24154663 15.00091553 C7.28597741 19.67996598 7.32706881 24.35887384 7.35009766 29.03808594 C7.36665182 31.50562983 7.39393434 33.97312588 7.43212891 36.44042969 C7.4869113 39.99699806 7.50877575 43.55244144 7.5234375 47.109375 C7.54610687 48.2095697 7.56877625 49.3097644 7.59213257 50.44329834 C7.56856581 58.99478212 7.56856581 58.99478212 4.59228516 62.68066406 C0.68922556 66.1727592 -1.66959655 66.29242221 -6.74609375 66.2109375 C-9.91423899 65.91443864 -11.61562123 65.10386362 -14 63 C-17.60650852 57.52525756 -17.45217235 52.45459996 -17.43359375 46.125 C-17.4388356 45.08230957 -17.44407745 44.03961914 -17.44947815 42.96533203 C-17.45588533 40.7666106 -17.4545783 38.56785483 -17.44604492 36.36914062 C-17.43752814 33.01109692 -17.46632704 29.65475116 -17.49804688 26.296875 C-17.49965891 24.15625051 -17.49908131 22.01562301 -17.49609375 19.875 C-17.50732773 18.87484863 -17.51856171 17.87469727 -17.53013611 16.84423828 C-17.45859452 9.6665779 -16.10932292 6.45480324 -11.3125 1.125 C-7.59020323 -0.68584708 -4.04418256 -0.76965412 0 0 Z " fill="#11BAF8" transform="translate(517,211)"/>
<path d="M0 0 C2.70552388 2.19823815 4.44778333 3.89556667 6 7 C6.11538263 8.60162895 6.16949874 10.20786697 6.19287109 11.81347656 C6.21696548 13.31578827 6.21696548 13.31578827 6.24154663 14.84844971 C6.28598472 19.43590656 6.3270693 24.02321805 6.35009766 28.61083984 C6.36665088 31.02988306 6.3939322 33.4488775 6.43212891 35.86767578 C6.48691967 39.35475045 6.50877697 42.84067771 6.5234375 46.328125 C6.54610687 47.40644592 6.56877625 48.48476685 6.59213257 49.59576416 C6.56856593 57.98165669 6.56856593 57.98165669 3.59228516 61.66699219 C-0.1955522 65.07597446 -2.63235319 65.45401145 -7.60546875 65.421875 C-11.71410202 64.69800486 -14.40985796 62.16829875 -17 59 C-17.95044506 56.14866481 -18.14178403 54.3104233 -18.17700195 51.34838867 C-18.18983719 50.40698532 -18.20267242 49.46558197 -18.21589661 48.49565125 C-18.22328354 47.48001602 -18.23067047 46.4643808 -18.23828125 45.41796875 C-18.246353 44.37103348 -18.25442474 43.32409821 -18.26274109 42.24543762 C-18.27657518 40.02879489 -18.28730035 37.81213093 -18.29516602 35.59545898 C-18.3123804 32.21101403 -18.35627371 28.82754553 -18.40039062 25.44335938 C-18.41051764 23.28906968 -18.41903372 21.13477168 -18.42578125 18.98046875 C-18.44328934 17.97090622 -18.46079742 16.96134369 -18.47883606 15.92118835 C-18.46043145 9.9393723 -17.95924225 6.56849739 -14 2 C-9.71775717 -1.79284365 -5.2678932 -1.59372856 0 0 Z " fill="#0076EF" transform="translate(518,747)"/>
<path d="M0 0 C2.70552388 2.19823815 4.44778333 3.89556667 6 7 C6.11538263 8.60162895 6.16949874 10.20786697 6.19287109 11.81347656 C6.21696548 13.31578827 6.21696548 13.31578827 6.24154663 14.84844971 C6.28598472 19.43590656 6.3270693 24.02321805 6.35009766 28.61083984 C6.36665088 31.02988306 6.3939322 33.4488775 6.43212891 35.86767578 C6.48691967 39.35475045 6.50877697 42.84067771 6.5234375 46.328125 C6.54610687 47.40644592 6.56877625 48.48476685 6.59213257 49.59576416 C6.56856593 57.98165669 6.56856593 57.98165669 3.59228516 61.66699219 C-0.23818992 65.11434761 -2.6581709 65.40004183 -7.67578125 65.3515625 C-11.65279302 64.74999769 -13.28353165 62.91523432 -16 60 C-17.8326615 56.99254669 -18.2581943 54.73695452 -18.29052734 51.23486328 C-18.30328705 50.29353546 -18.31604675 49.35220764 -18.32919312 48.38235474 C-18.33141876 47.3718808 -18.33364441 46.36140686 -18.3359375 45.3203125 C-18.3425943 44.27479218 -18.3492511 43.22927185 -18.35610962 42.15206909 C-18.36622977 39.94140379 -18.37092684 37.73070798 -18.37060547 35.52001953 C-18.37497496 32.14434244 -18.4112924 28.76997675 -18.44921875 25.39453125 C-18.4550878 23.24479613 -18.4590566 21.09505481 -18.4609375 18.9453125 C-18.47530853 17.93888702 -18.48967957 16.93246155 -18.50448608 15.89553833 C-18.46574224 9.92879661 -17.94387022 6.55961461 -14 2 C-9.71775717 -1.79284365 -5.2678932 -1.59372856 0 0 Z " fill="#007AF1" transform="translate(443,747)"/>
<path d="M0 0 C3.74140879 1.66284835 5.83527806 3.55490105 8 7 C8.39440918 9.4147644 8.39440918 9.4147644 8.41992188 12.13232422 C8.43583374 13.15373505 8.45174561 14.17514587 8.46813965 15.22750854 C8.46844177 16.87446213 8.46844177 16.87446213 8.46875 18.5546875 C8.48017029 20.25614426 8.48017029 20.25614426 8.49182129 21.99197388 C8.5026246 24.39094848 8.50547448 26.78997013 8.50097656 29.18896484 C8.50000539 32.8546423 8.54160425 36.51821914 8.5859375 40.18359375 C8.59114538 42.51562064 8.59383268 44.8476548 8.59375 47.1796875 C8.6183429 48.82056839 8.6183429 48.82056839 8.64343262 50.49459839 C8.56653702 58.9871517 8.56653702 58.9871517 5.58789062 62.67626953 C1.52031442 66.32864597 -1.19647191 66.33140194 -6.515625 66.29296875 C-9.97198834 65.88537873 -11.68663869 64.53723498 -14 62 C-15.24449274 59.51101451 -15.15389675 57.78802313 -15.19287109 55.00292969 C-15.20893402 53.96134705 -15.22499695 52.9197644 -15.24154663 51.84661865 C-15.28597039 47.07597461 -15.32706834 42.3054705 -15.35009766 37.53466797 C-15.36665272 35.01862333 -15.3939364 32.50262563 -15.43212891 29.98681641 C-15.48690326 26.36075415 -15.50877458 22.73579531 -15.5234375 19.109375 C-15.54610687 17.98730652 -15.56877625 16.86523804 -15.59213257 15.70916748 C-15.5685657 6.99209245 -15.5685657 6.99209245 -12.59228516 3.30566406 C-8.55586876 -0.28445804 -5.28368684 -0.56901243 0 0 Z " fill="#0FB3FA" transform="translate(591,211)"/>
<path d="M0 0 C0.72960937 0.02964844 1.45921875 0.05929687 2.2109375 0.08984375 C6.17874345 1.68852285 8.49676876 4.38732963 10.625 8.0625 C11.46677422 11.96091329 11.4204082 15.75063845 11.3515625 19.7265625 C11.35255951 20.83679779 11.35355652 21.94703308 11.35458374 23.09091187 C11.34991779 25.42917063 11.33055193 27.76744088 11.29736328 30.10546875 C11.2500568 33.68320424 11.25626495 37.25796739 11.26953125 40.8359375 C11.25838028 43.11199692 11.24416213 45.38804381 11.2265625 47.6640625 C11.22929672 49.2657579 11.22929672 49.2657579 11.23208618 50.89981079 C11.09061226 58.30660226 11.09061226 58.30660226 8.69677734 62.19287109 C4.76302194 65.74280026 2.01090362 66.46164367 -3.41015625 66.3203125 C-6.29337475 65.94199755 -8.11864849 64.85430855 -10.375 63.0625 C-12.56776817 59.77334775 -12.63384304 58.75878676 -12.66552734 54.93603516 C-12.6846669 53.36893295 -12.6846669 53.36893295 -12.70419312 51.77017212 C-12.70641876 50.64203094 -12.70864441 49.51388977 -12.7109375 48.3515625 C-12.7175943 47.19127533 -12.7242511 46.03098816 -12.73110962 44.83554077 C-12.74124186 42.37930895 -12.74592646 39.92304957 -12.74560547 37.46679688 C-12.7499748 33.70917341 -12.78627999 29.95272776 -12.82421875 26.1953125 C-12.83008749 23.80989985 -12.8340565 21.42448162 -12.8359375 19.0390625 C-12.85030853 17.91496979 -12.86467957 16.79087708 -12.87948608 15.63272095 C-12.83377633 7.82503046 -12.83377633 7.82503046 -10.46972656 3.89575195 C-7.04192175 0.89582347 -4.59048862 -0.33019304 0 0 Z " fill="#0072F0" transform="translate(588.375,745.9375)"/>
<path d="M0 0 C1.49956993 -0.00786278 1.49956993 -0.00786278 3.0294342 -0.0158844 C5.1399747 -0.02229691 7.25055097 -0.0209776 9.36108398 -0.01245117 C12.58316968 -0.0039445 15.80348009 -0.03270895 19.02539062 -0.06445312 C21.07942655 -0.06606541 23.13346561 -0.06548709 25.1875 -0.0625 C26.62681129 -0.07935097 26.62681129 -0.07935097 28.09519958 -0.09654236 C35.1146937 -0.02372919 38.38497952 1.37676213 43.53515625 6.18359375 C45.22170679 9.55669483 45.19119266 12.78180909 44.66015625 16.43359375 C42.86430675 20.6869215 40.8343273 22.54150697 36.66015625 24.43359375 C33.05598804 24.87873354 29.47546271 24.85387721 25.84765625 24.83203125 C24.27794067 24.83633652 24.27794067 24.83633652 22.67651367 24.84072876 C20.46760516 24.84276703 18.2586785 24.83725379 16.04980469 24.82470703 C12.67211479 24.8086506 9.2956215 24.82456438 5.91796875 24.84375 C3.76952861 24.84176753 1.62108922 24.83792377 -0.52734375 24.83203125 C-2.04001831 24.84114029 -2.04001831 24.84114029 -3.58325195 24.85043335 C-12.4337816 24.76181858 -12.4337816 24.76181858 -16.33984375 21.43359375 C-18.95509704 17.37544209 -20.04109123 14.24214788 -19.33984375 9.43359375 C-14.67414675 0.62061053 -9.20336255 -0.02809768 0 0 Z " fill="#0FAAF7" transform="translate(230.33984375,500.56640625)"/>
<path d="M0 0 C0.90458954 -0.00960754 1.80917908 -0.01921509 2.74118042 -0.02911377 C3.71620514 -0.03336365 4.69122986 -0.03761353 5.69580078 -0.04199219 C7.20317307 -0.0505423 7.20317307 -0.0505423 8.74099731 -0.05926514 C10.86768542 -0.06871296 12.99438815 -0.07524825 15.12109375 -0.07910156 C18.37151661 -0.08880866 21.62130755 -0.11983504 24.87158203 -0.15136719 C26.93798453 -0.15789724 29.00439154 -0.16314771 31.07080078 -0.16699219 C32.52726517 -0.18551239 32.52726517 -0.18551239 34.01315308 -0.20440674 C40.56605959 -0.18281705 44.03157072 0.74374005 48.82861328 5.41113281 C51.03267235 9.00293278 51.09935355 11.00554592 50.51611328 15.16113281 C48.02750939 20.13834059 45.65458599 22.16591303 40.51611328 24.16113281 C37.10728779 24.59608888 33.73056838 24.60551129 30.29736328 24.59472656 C28.83320984 24.60258934 28.83320984 24.60258934 27.33947754 24.61061096 C25.28199207 24.61701567 23.22446991 24.61571432 21.16699219 24.60717773 C18.02619071 24.59866014 14.88720444 24.62746368 11.74658203 24.65917969 C9.74267632 24.66079174 7.73876741 24.6602141 5.73486328 24.65722656 C4.80033325 24.66846054 3.86580322 24.67969452 2.9029541 24.69126892 C-2.73539163 24.63123921 -6.02131502 23.94650663 -10.48388672 20.16113281 C-13.2586117 17.0283788 -13.70622313 14.72382539 -13.48388672 10.66113281 C-12.80681387 6.1473138 -11.15999955 3.96198068 -7.48388672 1.16113281 C-4.67208444 0.22386539 -2.91266497 0.02500205 0 0 Z " fill="#0C9DF7" transform="translate(224.48388671875,578.8388671875)"/>
<path d="M0 0 C0.92130707 -0.0127597 1.84261414 -0.02551941 2.7918396 -0.03866577 C3.78043976 -0.04089142 4.76903992 -0.04311707 5.78759766 -0.04541016 C6.81092194 -0.05206696 7.83424622 -0.05872375 8.88858032 -0.06558228 C11.05216679 -0.07570164 13.21578442 -0.08039952 15.37939453 -0.08007812 C18.68265457 -0.08444752 21.98457429 -0.12076525 25.28759766 -0.15869141 C27.39175976 -0.16456051 29.4959282 -0.16852927 31.60009766 -0.17041016 C33.0769252 -0.19196671 33.0769252 -0.19196671 34.58358765 -0.21395874 C40.33193793 -0.17582737 43.82891647 0.33498232 48.32666016 4.29052734 C51.15826548 8.53793533 50.97188333 12.30398777 50.32666016 17.29052734 C47.99176221 21.44145703 45.81562688 22.94874851 41.32666016 24.29052734 C37.94112242 24.59211426 34.56773006 24.59459269 31.17041016 24.59130859 C29.70057678 24.59773628 29.70057678 24.59773628 28.2010498 24.60429382 C26.13339001 24.61002589 24.06571005 24.61054568 21.99804688 24.60620117 C18.8377036 24.6030384 15.67829424 24.62652446 12.51806641 24.65185547 C10.50634883 24.65412831 8.49462875 24.65483203 6.48291016 24.65380859 C5.54008179 24.66301834 4.59725342 24.67222809 3.62585449 24.68171692 C-2.81287129 24.63637017 -6.2197378 23.61150225 -10.98583984 19.10302734 C-13.17103358 15.46103779 -13.47452813 12.38459947 -12.67333984 8.29052734 C-9.59958639 2.36257426 -6.63430599 0.06259793 0 0 Z " fill="#0074EF" transform="translate(762.67333984375,578.70947265625)"/>
<path d="M0 0 C0.86132034 -0.00960754 1.72264069 -0.01921509 2.61006165 -0.02911377 C3.53820175 -0.03336365 4.46634186 -0.03761353 5.42260742 -0.04199219 C6.38075851 -0.04769226 7.33890961 -0.05339233 8.32609558 -0.05926514 C10.3544301 -0.06871263 12.38277995 -0.07524813 14.41113281 -0.07910156 C17.50572687 -0.08879717 20.5996539 -0.11981896 23.6940918 -0.15136719 C25.66609307 -0.15789849 27.63809908 -0.16314846 29.61010742 -0.16699219 C30.53217484 -0.17933899 31.45424225 -0.19168579 32.4042511 -0.20440674 C38.85993323 -0.18215748 43.14221925 0.85865556 48.09057617 5.28613281 C50.35499927 9.29241984 50.5245116 12.65887604 49.71557617 17.16113281 C47.35084986 21.27750825 45.1969992 22.82648235 40.71557617 24.16113281 C37.34169772 24.46225959 33.98015077 24.46519783 30.59448242 24.46191406 C29.61696518 24.46619919 28.63944794 24.47048431 27.63230896 24.47489929 C25.56884535 24.48063185 23.50536153 24.48115078 21.44189453 24.47680664 C18.29253523 24.47364732 15.14411627 24.49711739 11.99487305 24.52246094 C9.98641069 24.52473417 7.97794581 24.52543732 5.96948242 24.52441406 C5.03181534 24.53362381 4.09414825 24.54283356 3.12806702 24.55232239 C-2.09634035 24.51552471 -5.77396178 24.10095975 -10.28442383 21.16113281 C-13.14584639 17.82280649 -13.92739245 14.64207527 -13.77661133 10.22753906 C-12.86075525 6.38239726 -10.25859473 3.65769963 -7.28442383 1.16113281 C-4.52781181 0.24226214 -2.84544832 0.02566895 0 0 Z " fill="#007AF1" transform="translate(763.284423828125,500.8388671875)"/>
<path d="M0 0 C1.47216728 -0.02398109 1.47216728 -0.02398109 2.97407532 -0.04844666 C4.0334581 -0.05380936 5.09284088 -0.05917206 6.18432617 -0.06469727 C7.27565353 -0.07372574 8.3669809 -0.08275421 9.49137878 -0.09205627 C11.80216727 -0.10657266 14.11299699 -0.11544895 16.42382812 -0.11914062 C19.95342658 -0.13102316 23.48126939 -0.18018619 27.01049805 -0.23071289 C29.25593222 -0.24017859 31.50137714 -0.24741292 33.74682617 -0.25219727 C35.32679131 -0.28149574 35.32679131 -0.28149574 36.93867493 -0.31138611 C45.12952127 -0.26114726 45.12952127 -0.26114726 48.81591797 2.71630859 C52.05453456 6.28750529 52.51171061 8.35230662 52.44995117 13.20483398 C51.98328589 16.64409322 50.38353906 18.71786166 48.16479492 21.30639648 C45.17034227 23.17104206 42.88462321 23.56159202 39.38378906 23.58105469 C38.43923355 23.5905867 37.49467804 23.60011871 36.52149963 23.60993958 C35.50788864 23.60902817 34.49427765 23.60811676 33.44995117 23.60717773 C31.87811317 23.61360542 31.87811317 23.61360542 30.27452087 23.62016296 C28.05964887 23.62590276 25.84475801 23.62640911 23.62988281 23.62207031 C20.24340618 23.61891151 16.85780412 23.64237054 13.47143555 23.66772461 C11.31844186 23.66999776 9.16544582 23.67070103 7.01245117 23.66967773 C6.00086441 23.67888748 4.98927765 23.68809723 3.94703674 23.69758606 C-4.93337524 23.63921972 -4.93337524 23.63921972 -8.83520508 20.30639648 C-11.45045837 16.24824483 -12.53645256 13.11495061 -11.83520508 8.30639648 C-8.78622149 2.8392535 -6.37453242 0.07854649 0 0 Z " fill="#11BCFB" transform="translate(222.835205078125,424.693603515625)"/>
<path d="M0 0 C1.44224945 -0.02409439 1.44224945 -0.02409439 2.91363525 -0.04867554 C7.31790487 -0.09312916 11.72202327 -0.13419924 16.12646484 -0.15722656 C18.44850696 -0.17377781 20.7704983 -0.20105657 23.09228516 -0.23925781 C26.44037305 -0.29406637 29.78726588 -0.31590847 33.13574219 -0.33056641 C34.17031555 -0.35323578 35.20488892 -0.37590515 36.27081299 -0.39926147 C44.32552299 -0.37569508 44.32552299 -0.37569508 48.00976562 2.60058594 C51.52933424 6.4659955 51.71237503 8.86117396 51.65527344 13.93505859 C51.22945092 17.30663966 49.83534545 18.93307852 47.37011719 21.19287109 C44.38445269 22.98689204 42.16249212 23.45069772 38.69677734 23.48339844 C37.77547028 23.49615814 36.85416321 23.50891785 35.90493774 23.52206421 C34.91633759 23.52428986 33.92773743 23.5265155 32.90917969 23.52880859 C31.88585541 23.53546539 30.86253113 23.54212219 29.80819702 23.54898071 C27.64461055 23.55910008 25.48099292 23.56379795 23.31738281 23.56347656 C20.01412278 23.56784595 16.71220305 23.60416369 13.40917969 23.64208984 C11.30501758 23.64795894 9.20084914 23.65192771 7.09667969 23.65380859 C5.61985214 23.67536514 5.61985214 23.67536514 4.1131897 23.69735718 C-1.63516059 23.65922581 -5.13213912 23.14841612 -9.62988281 19.19287109 C-12.31109358 15.17105495 -12.44332616 11.92050718 -11.62988281 7.19287109 C-8.79117697 2.09586394 -5.70587519 0.0865389 0 0 Z " fill="#0084F7" transform="translate(761.6298828125,424.80712890625)"/>
<path d="M0 0 C-4.61620906 4.08356955 -9.67737588 4.12542939 -15.62652397 4.12304783 C-16.72877308 4.12503888 -17.83102218 4.12702993 -18.96667278 4.12908131 C-20.16706255 4.12616847 -21.36745231 4.12325563 -22.60421753 4.12025452 C-24.52913519 4.12153615 -24.52913519 4.12153615 -26.49294007 4.12284368 C-30.0480879 4.1250769 -33.60320553 4.12108341 -37.15834951 4.11606562 C-40.9946807 4.11174447 -44.8310102 4.11320873 -48.66734314 4.1139679 C-55.31180092 4.11449207 -61.95624888 4.11135634 -68.60070419 4.10573006 C-78.2074539 4.09760071 -87.81419885 4.09499836 -97.42095162 4.09374207 C-113.00752513 4.09155381 -128.5940934 4.08489983 -144.18066406 4.07543945 C-159.32096328 4.0662595 -174.46126107 4.05918151 -189.6015625 4.05493164 C-191.00159241 4.05453756 -191.00159241 4.05453756 -192.42990576 4.05413551 C-197.11229624 4.05283047 -201.79468674 4.05156676 -206.47707725 4.05032361 C-245.31805516 4.03995803 -284.15902724 4.02234584 -323 4 C-323 3.01 -323 2.02 -323 1 C-321.49441686 1.00138269 -321.49441686 1.00138269 -319.95841789 1.00279331 C-294.96214334 1.02549407 -269.96587018 1.04165364 -244.96958733 1.05181217 C-232.87913509 1.05686149 -220.78868993 1.06370323 -208.69824219 1.07543945 C-157.66413904 1.12388489 -106.63375298 1.06936686 -55.60150766 0.59018397 C-52.21199757 0.55874849 -48.82247636 0.5289237 -45.43294907 0.49940681 C-40.17196203 0.45299821 -34.91105696 0.40116724 -29.6501689 0.344661 C-27.72623454 0.32456442 -25.8022837 0.30598093 -23.87831926 0.28900599 C-21.2608563 0.26539246 -18.64353307 0.23573043 -16.02615356 0.20433044 C-14.88263438 0.1958448 -14.88263438 0.1958448 -13.71601379 0.18718773 C-0.00823127 -0.00264577 -0.00823127 -0.00264577 0 0 Z " fill="#0076F4" transform="translate(678,717)"/>
<path d="M0 0 C18.49115238 -0.02350491 36.98230081 -0.04106465 55.47346497 -0.05181217 C64.06190494 -0.05693814 72.65033557 -0.06390907 81.23876953 -0.07543945 C88.73654564 -0.08550066 96.23431496 -0.09188022 103.73209763 -0.09408849 C107.69109692 -0.09537648 111.65007683 -0.09833778 115.60906982 -0.10573006 C133.42833624 -0.13775255 151.20058717 0.03382451 169 1 C169 1.66 169 2.32 169 3 C113.23 3 57.46 3 0 3 C0 2.01 0 1.02 0 0 Z " fill="#0184F9" transform="translate(355,718)"/>
<path d="M0 0 C1.485 0.99 1.485 0.99 3 2 C2.02189418 3.12592245 1.04241565 4.25065233 0.0625 5.375 C-0.576875 6.11234375 -1.21625 6.8496875 -1.875 7.609375 C-3.2804662 9.19052448 -4.7180806 10.74372633 -6.1875 12.265625 C-15.63746493 22.17496322 -21.92942362 33.95206719 -26 47 C-26.18836426 47.60175049 -26.37672852 48.20350098 -26.57080078 48.82348633 C-28.62065977 56.44047338 -28.21957647 64.24566534 -28.125 72.0625 C-28.11494832 73.51496778 -28.10582635 74.9674423 -28.09765625 76.41992188 C-28.07582017 79.94675682 -28.04141149 83.4733342 -28 87 C-30.02242735 85.34422326 -30.91978461 84.46403943 -31.37231445 81.84619141 C-31.3693335 81.02296387 -31.36635254 80.19973633 -31.36328125 79.3515625 C-31.36416748 78.43487793 -31.36505371 77.51819336 -31.3659668 76.57373047 C-31.34832275 75.60064941 -31.33067871 74.62756836 -31.3125 73.625 C-31.3019458 72.63000488 -31.2913916 71.63500977 -31.28051758 70.60986328 C-31.07143791 58.98276322 -29.02854951 48.2056332 -26 37 C-26.66 37 -27.32 37 -28 37 C-28 36.34 -28 35.68 -28 35 C-27.4225 34.979375 -26.845 34.95875 -26.25 34.9375 C-23.12601503 33.63583959 -22.23125996 31.7157776 -20.68359375 28.7890625 C-19.82166943 26.93605472 -19.82166943 26.93605472 -20.25 24.5625 C-20.4975 24.046875 -20.745 23.53125 -21 23 C-20.236875 22.814375 -19.47375 22.62875 -18.6875 22.4375 C-15.52289348 20.74480349 -14.96310128 19.25035179 -13.7578125 15.953125 C-12.52103504 12.76555422 -10.7388313 9.9380253 -9 7 C-7.68 7.33 -6.36 7.66 -5 8 C-5.103125 7.236875 -5.20625 6.47375 -5.3125 5.6875 C-5.209375 4.800625 -5.10625 3.91375 -5 3 C-2.5 1.1875 -2.5 1.1875 0 0 Z " fill="#0DB1E9" transform="translate(453,417)"/>
<path d="M0 0 C0.66 0.33 1.32 0.66 2 1 C1.39437729 1.59562996 1.39437729 1.59562996 0.77651978 2.20329285 C-3.48414032 6.39676909 -7.73355365 10.60141441 -11.97705078 14.81225586 C-13.55501224 16.37527633 -15.13567311 17.93557708 -16.71923828 19.49291992 C-28.39447229 30.97984371 -39.68505001 42.34040068 -47.25 57.0625 C-47.65911621 57.84471924 -48.06823242 58.62693848 -48.48974609 59.43286133 C-52.90072142 68.22607882 -55.53951402 77.50812523 -58 87 C-58.33 87 -58.66 87 -59 87 C-58.49919632 79.48794475 -56.52647488 73.0645958 -54 66 C-53.64808594 64.93136719 -53.29617188 63.86273437 -52.93359375 62.76171875 C-51.76711359 59.31108497 -50.1870034 56.79265914 -48.125 53.8125 C-46.20829058 50.97850822 -44.60073229 48.31871357 -43.375 45.125 C-41.96790893 41.92706575 -40.9675891 40.7396212 -38 39 C-38.33 38.34 -38.66 37.68 -39 37 C-37.02 36.505 -37.02 36.505 -35 36 C-34.9175 35.05125 -34.835 34.1025 -34.75 33.125 C-34 30 -34 30 -32.0625 28.625 C-30 28 -30 28 -28 28 C-25.8263674 26.00279246 -23.74720865 23.97796476 -21.6796875 21.875 C-20.75169846 20.94276611 -20.75169846 20.94276611 -19.80496216 19.99169922 C-17.82358269 17.99909477 -15.84925651 15.99965967 -13.875 14 C-12.53561398 12.65058718 -11.19577599 11.30162282 -9.85546875 9.953125 C-6.5650389 6.64060405 -3.28091994 3.32193932 0 0 Z " fill="#0DC4F6" transform="translate(403,471)"/>
<path d="M0 0 C5.68784683 1.7379532 7.80788839 5.21183258 11 10 C11.24050903 12.25895691 11.24050903 12.25895691 11.22705078 14.93041992 C11.22682419 16.43163643 11.22682419 16.43163643 11.22659302 17.96318054 C11.21627045 19.04138565 11.20594788 20.11959076 11.1953125 21.23046875 C11.1924826 22.33602615 11.18965271 23.44158356 11.18673706 24.5806427 C11.17553002 28.11637128 11.15042427 31.6518478 11.125 35.1875 C11.11497089 37.58267864 11.10584492 39.97786124 11.09765625 42.37304688 C11.07558897 48.24878411 11.04210618 54.12437405 11 60 C10.01 59.67 9.02 59.34 8 59 C7.99635437 58.37217117 7.99270874 57.74434235 7.98895264 57.0974884 C7.9471242 50.55965228 7.87777589 44.02251795 7.79248047 37.48510742 C7.76426453 35.04572572 7.74305315 32.60625248 7.72900391 30.16674805 C7.7075839 26.65886552 7.66093565 23.15208429 7.609375 19.64453125 C7.60814636 18.55477493 7.60691772 17.46501862 7.60565186 16.34223938 C7.52378721 10.29850187 7.52378721 10.29850187 5.07128906 4.88549805 C4.38776367 4.26328369 3.70423828 3.64106934 3 3 C2.4225 2.401875 1.845 1.80375 1.25 1.1875 C0.8375 0.795625 0.425 0.40375 0 0 Z " fill="#031B33" transform="translate(441,210)"/>
<path d="M0 0 C1.27496338 0.05188477 2.54992676 0.10376953 3.86352539 0.15722656 C17.72129335 0.81969288 30.89233343 3.0884674 43.625 8.8125 C44.12 9.8025 44.12 9.8025 44.625 10.8125 C41.00458443 10.19165802 37.59444152 9.19848407 34.10864258 8.04760742 C11.3497991 0.56632669 -11.46171382 0.64847407 -33.984375 9.140625 C-36.375 9.8125 -36.375 9.8125 -39.375 8.8125 C-38.055 8.4825 -36.735 8.1525 -35.375 7.8125 C-35.375 7.1525 -35.375 6.4925 -35.375 5.8125 C-29.625 4.8125 -29.625 4.8125 -27.375 4.8125 C-27.375 3.8225 -27.375 2.8325 -27.375 1.8125 C-18.12754099 0.05627449 -9.3928801 -0.41106696 0 0 Z " fill="#0DC9F6" transform="translate(577.375,335.1875)"/>
<path d="M0 0 C0 2 0 4 0 6 C-1.051875 6.2784375 -1.051875 6.2784375 -2.125 6.5625 C-5.50046451 8.25023225 -6.99455986 10.1735072 -9.328125 13.06640625 C-11.69037488 15.79844759 -14.3846163 18.04943837 -17.1328125 20.3828125 C-19.15248151 22.08621553 -19.15248151 22.08621553 -21.4375 24.5 C-25.03699099 28.01169852 -28.98810576 30.97733995 -33 34 C-33.6703125 34.5259375 -34.340625 35.051875 -35.03125 35.59375 C-36.62790915 36.81154088 -38.30866218 37.91754379 -40 39 C-40.99 38.67 -41.98 38.34 -43 38 C-41.69334867 34.080046 -40.05578034 33.54073641 -36.5625 31.4375 C-32.53872741 29.02809453 -32.53872741 29.02809453 -29 26 C-28.25210205 25.74105957 -27.5042041 25.48211914 -26.73364258 25.21533203 C-23.21433224 23.65070518 -20.90116427 21.27600746 -18.26171875 18.5546875 C-17.73608841 18.02481232 -17.21045807 17.49493713 -16.66889954 16.94900513 C-15.0012234 15.26461389 -13.34431651 13.57006739 -11.6875 11.875 C-10.55473292 10.72717684 -9.42127645 9.58003359 -8.28710938 8.43359375 C-5.5166953 5.63020563 -2.75588867 2.81766569 0 0 Z " fill="#007DF0" transform="translate(535,623)"/>
<path d="M0 0 C21.78 0 43.56 0 66 0 C66 0.33 66 0.66 66 1 C61.38 1.33 56.76 1.66 52 2 C52 2.33 52 2.66 52 3 C42.43 3 32.86 3 23 3 C23 2.34 23 1.68 23 1 C15.41 1 7.82 1 0 1 C0 0.67 0 0.34 0 0 Z " fill="#0175F0" transform="translate(501,718)"/>
<path d="M0 0 C3.96001771 5.94002656 3.18605299 11.73234812 3.18530273 18.65795898 C3.1874881 20.92515866 3.20564493 23.19187089 3.22460938 25.45898438 C3.22754362 26.89843583 3.22952821 28.33788961 3.23046875 29.77734375 C3.23457764 31.08952881 3.23868652 32.40171387 3.24291992 33.75366211 C3 37 3 37 1 40 C-0.22595609 33.34802986 -0.38995728 26.74710877 -0.625 20 C-0.6765625 18.741875 -0.728125 17.48375 -0.78125 16.1875 C-0.82507813 14.970625 -0.86890625 13.75375 -0.9140625 12.5 C-0.9548291 11.3965625 -0.9955957 10.293125 -1.03759766 9.15625 C-0.99998526 5.99876241 -0.60306108 3.09513086 0 0 Z " fill="#038DF4" transform="translate(677,411)"/>
<path d="M0 0 C0.495 1.485 0.495 1.485 1 3 C-1.02285879 5.02285879 -3.041597 7.03915012 -5.125 9 C-7.08032758 10.86436973 -7.08032758 10.86436973 -7.9375 13.125 C-9 15 -9 15 -11.3125 15.875 C-14.36936151 17.15461644 -15.74269289 18.84050458 -17.75390625 21.421875 C-21.27871768 25.88589951 -25.64188411 29.39981731 -30 33 C-31.01680311 33.98290968 -32.02738219 34.97334787 -33 36 C-33.33 34.68 -33.66 33.36 -34 32 C-33.31591064 31.64188232 -32.63182129 31.28376465 -31.92700195 30.91479492 C-28.19370553 28.47253586 -25.28618772 25.53439469 -22.16796875 22.36328125 C-21.53135818 21.72384079 -20.89474762 21.08440033 -20.23884583 20.42558289 C-18.21696667 18.39255501 -16.20217332 16.35266638 -14.1875 14.3125 C-12.81361367 12.92857703 -11.43926961 11.54510832 -10.06445312 10.16210938 C-6.70431133 6.77997763 -3.35050495 3.39167762 0 0 Z " fill="#017CF2" transform="translate(647,505)"/>
<path d="M0 0 C0.66 0.33 1.32 0.66 2 1 C-10.21 13.21 -22.42 25.42 -35 38 C-36 35 -36 35 -36 33 C-34.02 32.01 -32.04 31.02 -30 30 C-30 28.35 -30 26.7 -30 25 C-29.39859192 25.21188461 -28.79718384 25.42376923 -28.17755127 25.64207458 C-27.09966339 25.81924767 -27.09966339 25.81924767 -26 26 C-23.75924774 24.20697454 -21.89039255 22.4713629 -19.921875 20.41015625 C-19.35043762 19.83164413 -18.77900024 19.25313202 -18.19024658 18.65708923 C-16.36479174 16.80360836 -14.55745926 14.93351774 -12.75 13.0625 C-11.51677877 11.80420672 -10.28241714 10.54703003 -9.046875 9.29101562 C-6.01785691 6.2068192 -3.00498272 3.10761192 0 0 Z " fill="#0FDAFC" transform="translate(511,361)"/>
<path d="M0 0 C-0.33 8.25 -0.66 16.5 -1 25 C-1.33 25 -1.66 25 -2 25 C-2.33 18.07 -2.66 11.14 -3 4 C-12.24 13.24 -21.48 22.48 -31 32 C-31 28.05822705 -29.29802267 26.93578016 -26.62979126 24.23860168 C-26.00172577 23.61974594 -25.37366028 23.0008902 -24.7265625 22.36328125 C-24.08762054 21.72384079 -23.44867859 21.08440033 -22.79037476 20.42558289 C-21.4370814 19.07463172 -20.0800896 17.72737689 -18.71972656 16.38354492 C-16.6316939 14.31911823 -14.55730771 12.2416861 -12.484375 10.16210938 C-11.17006164 8.85337201 -9.85498294 7.5454027 -8.5390625 6.23828125 C-7.91504547 5.61335281 -7.29102844 4.98842438 -6.64810181 4.34455872 C-2.23100669 0 -2.23100669 0 0 0 Z " fill="#03040D" transform="translate(406,472)"/>
<path d="M0 0 C0.66 0.66 1.32 1.32 2 2 C1.56429687 2.54785156 1.12859375 3.09570312 0.6796875 3.66015625 C-1.11343243 6.15801401 -2.47177667 8.70311074 -3.875 11.4375 C-6.1419862 15.65723669 -8.35033781 18.83055652 -12 22 C-14.36807369 24.30041444 -16.15764797 26.23647196 -18 29 C-19.6396721 30.36639342 -21.30327614 31.70513179 -23 33 C-23 30 -23 30 -21.06640625 27.87890625 C-19.39983679 26.3371345 -17.73317043 24.79546749 -16.06640625 23.25390625 C-13.93511666 20.92922933 -13.60024574 19.97180488 -13 17 C-11.66015625 14.9296875 -11.66015625 14.9296875 -10.0625 12.875 C-9.53785156 12.19179688 -9.01320313 11.50859375 -8.47265625 10.8046875 C-7 9 -7 9 -5 7 C-2.22195575 3.68393433 -2.22195575 3.68393433 0 0 Z " fill="#0187F1" transform="translate(584,567)"/>
<path d="M0 0 C2.37741411 2.37741411 2.91846774 4.28423546 4.0625 7.4375 C9.88206717 21.64609236 21.54450663 31.23975212 35 38 C32 39 32 39 29.65234375 37.8828125 C19.14630166 31.0803392 6.92277975 22.55289518 3 10 C2.34 10 1.68 10 1 10 C0.67 6.7 0.34 3.4 0 0 Z " fill="#050714" transform="translate(463,494)"/>
<path d="M0 0 C0.66 0.33 1.32 0.66 2 1 C2.41750113 7.05376634 2.11311805 10.181776 -2 15 C-2.99 15.33 -3.98 15.66 -5 16 C-5.33 16.66 -5.66 17.32 -6 18 C-6.66 18 -7.32 18 -8 18 C-8 18.66 -8 19.32 -8 20 C-9.43558544 21.23527119 -10.87726873 22.46449275 -12.35546875 23.6484375 C-14.73755189 25.60615904 -16.84802948 27.79423021 -19 30 C-20.10285608 31.1054757 -21.20703964 32.20962854 -22.3125 33.3125 C-23.199375 34.199375 -24.08625 35.08625 -25 36 C-25.66 35.67 -26.32 35.34 -27 35 C-25.82642944 33.88927124 -25.82642944 33.88927124 -24.62915039 32.75610352 C-21.71447882 29.98691728 -18.8269292 27.19077146 -15.9465332 24.38598633 C-14.69946572 23.17899565 -13.44529189 21.9793005 -12.18383789 20.78735352 C-10.3647897 19.06604952 -8.57346873 17.31955532 -6.78515625 15.56640625 C-6.22159927 15.04413956 -5.6580423 14.52187286 -5.07740784 13.98377991 C-0.79487943 9.70622343 -0.05287911 5.980801 0 0 Z " fill="#0282F4" transform="translate(527,539)"/>
<path d="M0 0 C1.21817645 3.65452934 0.60645708 5.00019148 -0.42578125 8.66796875 C-2.36124672 16.60260606 -2.337973 24.22197363 -2.1875 32.3125 C-2.17240284 33.7467305 -2.15872346 35.18097664 -2.14648438 36.61523438 C-2.11393 40.07715639 -2.06243621 43.53847237 -2 47 C-4.02242735 45.34422326 -4.91978461 44.46403943 -5.37231445 41.84619141 C-5.3693335 41.02296387 -5.36635254 40.19973633 -5.36328125 39.3515625 C-5.36416748 38.43463623 -5.36505371 37.51770996 -5.3659668 36.57299805 C-5.34832275 35.60015869 -5.33067871 34.62731934 -5.3125 33.625 C-5.3019458 32.63218018 -5.2913916 31.63936035 -5.28051758 30.61645508 C-5.08714974 19.88147746 -3.77065685 10.1122161 0 0 Z " fill="#0CC7F8" transform="translate(427,457)"/>
<path d="M0 0 C2.6875 -0.3125 2.6875 -0.3125 5 0 C5 0.99 5 1.98 5 3 C2.62779176 4.62026299 0.31314499 6.04411735 -2.1875 7.4375 C-6.74844419 10.02567216 -10.98848816 12.58047826 -15 16 C-15.66 15.67 -16.32 15.34 -17 15 C-16.525625 14.566875 -16.05125 14.13375 -15.5625 13.6875 C-13.76313043 11.97690387 -13.76313043 11.97690387 -13 9 C-10.50819872 7.82331606 -8.0057593 7.00178264 -5.375 6.1875 C-2.76887492 5.15889849 -2.76887492 5.15889849 -1.5 2.375 C-1.005 1.59125 -0.51 0.8075 0 0 Z " fill="#0FBBF2" transform="translate(531,344)"/>
<path d="M0 0 C1.13671875 1.59375 1.13671875 1.59375 2 4 C1.20703125 7.09375 1.20703125 7.09375 -0.1875 10.5 C-0.85845703 12.18609375 -0.85845703 12.18609375 -1.54296875 13.90625 C-3.66826322 18.4189396 -5.90360067 21.17489702 -10 24 C-8.63289835 20.50349577 -7.14402123 17.09195848 -5.5625 13.6875 C-3.49934009 9.18273072 -1.67163843 4.6629914 0 0 Z " fill="#0175EC" transform="translate(720,669)"/>
<path d="M0 0 C0 0.33 0 0.66 0 1 C-0.94101562 1.12117188 -1.88203125 1.24234375 -2.8515625 1.3671875 C-4.71941406 1.61855469 -4.71941406 1.61855469 -6.625 1.875 C-8.46964844 2.11863281 -8.46964844 2.11863281 -10.3515625 2.3671875 C-14.42679059 3.07402578 -18.16870468 4.08435234 -21.875 5.9375 C-23.91235742 6.95617871 -25.94855435 7.84038153 -28.0625 8.6875 C-28.73410156 8.95949219 -29.40570312 9.23148437 -30.09765625 9.51171875 C-32 10 -32 10 -35 9 C-33.68 8.67 -32.36 8.34 -31 8 C-31 7.34 -31 6.68 -31 6 C-25.25 5 -25.25 5 -23 5 C-23 4.01 -23 3.02 -23 2 C-15.26940505 0.64290496 -7.85546636 -0.31918373 0 0 Z " fill="#0D9CF4" transform="translate(573,335)"/>
<path d="M0 0 C0.97001953 0.00451172 1.94003906 0.00902344 2.93945312 0.01367188 C5.3138676 0.0253685 7.68815021 0.04175914 10.0625 0.0625 C9.0725 1.5475 9.0725 1.5475 8.0625 3.0625 C5.99951172 3.40307617 5.99951172 3.40307617 3.4921875 3.35546875 C2.59628906 3.34580078 1.70039062 3.33613281 0.77734375 3.32617188 C-0.62837891 3.2884668 -0.62837891 3.2884668 -2.0625 3.25 C-3.00738281 3.23646484 -3.95226562 3.22292969 -4.92578125 3.20898438 C-7.26358779 3.17356306 -9.60026237 3.12417271 -11.9375 3.0625 C-11.9375 3.3925 -11.9375 3.7225 -11.9375 4.0625 C-13.5875 4.0625 -15.2375 4.0625 -16.9375 4.0625 C-17.2675 3.0725 -17.5975 2.0825 -17.9375 1.0625 C-11.92889451 0.00411873 -6.09122439 -0.05412571 0 0 Z " fill="#041D40" transform="translate(578.9375,336.9375)"/>
<path d="M0 0 C0 3 0 3 -2.3125 5.5 C-3.79118353 6.87551956 -5.27009111 8.25079889 -6.75 9.625 C-8.25659086 11.09616618 -8.25659086 11.09616618 -9 14 C-9.99 14.33 -10.98 14.66 -12 15 C-13.69088222 16.97956942 -15.35830472 18.97945196 -17 21 C-17.66 21.33 -18.32 21.66 -19 22 C-19.66 22.99 -20.32 23.98 -21 25 C-21.66 24.34 -22.32 23.68 -23 23 C-15.41 15.41 -7.82 7.82 0 0 Z " fill="#0075F2" transform="translate(559,599)"/>
<path d="M0 0 C0.99 0.33 1.98 0.66 3 1 C1.71034824 2.37562854 0.37310707 3.70766393 -1 5 C-1.66 5 -2.32 5 -3 5 C-3.33 5.99 -3.66 6.98 -4 8 C-4.61875 8.763125 -5.2375 9.52625 -5.875 10.3125 C-8.05981381 13.07564688 -9.5184875 15.81474813 -11 19 C-11.82707306 16.63011757 -12.12634 15.38269269 -11.328125 12.96484375 C-10.79445313 11.96130859 -10.79445313 11.96130859 -10.25 10.9375 C-9.73179687 9.93009766 -9.73179687 9.93009766 -9.203125 8.90234375 C-6.87510677 5.22135389 -3.54843535 2.48390474 0 0 Z " fill="#0AA9F5" transform="translate(477,456)"/>
<path d="M0 0 C7.26 0 14.52 0 22 0 C16.60814846 4.04388866 12.53634175 3.53162246 6 3 C2.25 2 2.25 2 0 1 C0 0.67 0 0.34 0 0 Z " fill="#0179F4" transform="translate(478,718)"/>
<path d="M0 0 C0.33 0 0.66 0 1 0 C0.96029474 8.79471475 -1.69323424 18.22683334 -7.6953125 24.87890625 C-8.12585938 25.24886719 -8.55640625 25.61882813 -9 26 C-9.33 25.34 -9.66 24.68 -10 24 C-8.98182269 21.77198847 -7.91185822 19.65129521 -6.75 17.5 C-3.77622523 11.8114875 -1.51575075 6.26510311 0 0 Z " fill="#030A19" transform="translate(722,669)"/>
<path d="M0 0 C-6.02977369 4.01984912 -12.92445235 4.25729264 -20 4 C-15.50095938 -1.47709292 -6.43486203 -1.7391519 0 0 Z " fill="#0184EF" transform="translate(473,670)"/>
<path d="M0 0 C0 2 0 2 -2.25 4.375 C-3.1575 5.24125 -4.065 6.1075 -5 7 C-7.36807369 9.30041444 -9.15764797 11.23647196 -11 14 C-12.6396721 15.36639342 -14.30327614 16.70513179 -16 18 C-16 15 -16 15 -14.03125 12.84375 C-12.34375 11.28125 -10.65625 9.71875 -8.96875 8.15625 C-6.66286532 6.11739511 -6.66286532 6.11739511 -7 3 C-2.77777778 0 -2.77777778 0 0 0 Z " fill="#0076EF" transform="translate(577,582)"/>
<path d="M0 0 C0.66 0.33 1.32 0.66 2 1 C1.56429688 1.42410156 1.12859375 1.84820312 0.6796875 2.28515625 C-2.94873716 5.85860478 -6.38370719 9.50625471 -9.640625 13.421875 C-11.03499187 15.04062274 -12.40497116 16.57647964 -14 18 C-14.66 18 -15.32 18 -16 18 C-14.6415798 14.95667235 -13.11536976 12.87690849 -10.7421875 10.546875 C-10.11699219 9.928125 -9.49179687 9.309375 -8.84765625 8.671875 C-8.19667969 8.03765625 -7.54570312 7.4034375 -6.875 6.75 C-6.21628906 6.1003125 -5.55757813 5.450625 -4.87890625 4.78125 C-3.25703357 3.18288273 -1.6306719 1.58938103 0 0 Z " fill="#050815" transform="translate(510,364)"/>
<path d="M0 0 C0.66 0.66 1.32 1.32 2 2 C1.01 2.33 0.02 2.66 -1 3 C-1 3.66 -1 4.32 -1 5 C-1.7425 5.556875 -2.485 6.11375 -3.25 6.6875 C-6.61244597 9.51501138 -7.98736627 12.12381652 -10 16 C-10.66 16 -11.32 16 -12 16 C-12.33 16.99 -12.66 17.98 -13 19 C-13.33 18.34 -13.66 17.68 -14 17 C-13.45859375 16.29423828 -13.45859375 16.29423828 -12.90625 15.57421875 C-12.21015625 14.64029297 -12.21015625 14.64029297 -11.5 13.6875 C-10.80390625 12.76517578 -10.80390625 12.76517578 -10.09375 11.82421875 C-8.74288717 9.92566995 -8.74288717 9.92566995 -9 7 C-7.36209288 5.95355934 -5.68991979 4.9601817 -4 4 C-2.63015802 2.70420353 -1.2848951 1.38007251 0 0 Z " fill="#12C4F8" transform="translate(325,319)"/>
<path d="M0 0 C0.99 0 1.98 0 3 0 C3.77734375 1.703125 3.77734375 1.703125 4 4 C2.12890625 6.359375 2.12890625 6.359375 -0.4375 8.75 C-1.70400391 9.94882812 -1.70400391 9.94882812 -2.99609375 11.171875 C-3.65738281 11.77515625 -4.31867188 12.3784375 -5 13 C-6 10 -6 10 -6 8 C-4.02 7.01 -2.04 6.02 0 5 C0 3.35 0 1.7 0 0 Z " fill="#0DBDF9" transform="translate(481,386)"/>
<path d="M0 0 C0.33 0.66 0.66 1.32 1 2 C2.32 1.67 3.64 1.34 5 1 C5.33 2.98 5.66 4.96 6 7 C5.34 7 4.68 7 4 7 C4.66 9.31 5.32 11.62 6 14 C2.67016949 11.30442292 1.45548306 7.95059687 0 4 C0 2.68 0 1.36 0 0 Z " fill="#07A0F3" transform="translate(386,589)"/>
<path d="M0 0 C2.99904612 1.49952306 3.24356603 3.73653926 4.4375 6.8125 C6.15177569 11.24642629 6.15177569 11.24642629 8.72265625 15.19921875 C9.14417969 15.79347656 9.56570313 16.38773438 10 17 C9.67 17.99 9.34 18.98 9 20 C0 5.52427184 0 5.52427184 0 0 Z " fill="#050A19" transform="translate(384,589)"/>
<path d="M0 0 C6.02536998 -0.602537 6.02536998 -0.602537 8.80078125 1.11328125 C10.25599455 2.34621853 11.63479157 3.66808933 13 5 C12.67 5.99 12.34 6.98 12 8 C11.62875 7.34 11.2575 6.68 10.875 6 C9.11424728 3.65393634 9.11424728 3.65393634 6 3.875 C5.01 3.91625 4.02 3.9575 3 4 C2.01 3.34 1.02 2.68 0 2 C0 1.34 0 0.68 0 0 Z " fill="#14D3F3" transform="translate(510,211)"/>
<path d="M0 0 C0 3.33806496 -0.58108945 4.35678608 -2.3125 7.125 C-2.95638672 8.18074219 -2.95638672 8.18074219 -3.61328125 9.2578125 C-5 11 -5 11 -8 12 C-7.84595887 6.91664275 -4.97931568 4.64245282 -1.49609375 1.35546875 C-1.00238281 0.90816406 -0.50867188 0.46085937 0 0 Z " fill="#041830" transform="translate(481,393)"/>
<path d="M0 0 C0.33 0.66 0.66 1.32 1 2 C-0.258125 2.103125 -1.51625 2.20625 -2.8125 2.3125 C-6.13957417 2.69609156 -6.13957417 2.69609156 -8.875 4.5625 C-9.24625 5.036875 -9.6175 5.51125 -10 6 C-10.66 6 -11.32 6 -12 6 C-12 6.99 -12 7.98 -12 9 C-12.66 9 -13.32 9 -14 9 C-13.02552263 5.49188148 -12.07842969 4.06595224 -9.25 1.6875 C-5.78812732 -0.11001082 -3.83428028 -0.36516955 0 0 Z " fill="#0181E6" transform="translate(590,746)"/>
<path d="M0 0 C0.33 0.66 0.66 1.32 1 2 C3.32156597 2.40729228 5.6568787 2.74438677 8 3 C8 3.66 8 4.32 8 5 C10.31 5 12.62 5 15 5 C15 5.33 15 5.66 15 6 C13.06280622 6.05406122 11.12518079 6.09282025 9.1875 6.125 C8.10855469 6.14820313 7.02960938 6.17140625 5.91796875 6.1953125 C3 6 3 6 0 4 C0 2.68 0 1.36 0 0 Z " fill="#028BED" transform="translate(347,714)"/>
<path d="M0 0 C0.33 0 0.66 0 1 0 C1.33 4.62 1.66 9.24 2 14 C2.33 14 2.66 14 3 14 C2.67 16.97 2.34 19.94 2 23 C1.67 23 1.34 23 1 23 C-0.0176403 17.98391475 -0.11856434 13.21391694 -0.0625 8.125 C-0.05798828 7.34125 -0.05347656 6.5575 -0.04882812 5.75 C-0.03714093 3.83329986 -0.01920908 1.91663952 0 0 Z " fill="#036FD6" transform="translate(677,428)"/>
<path d="M0 0 C-0.6875 1.9375 -0.6875 1.9375 -2 4 C-5.85214273 5.39105154 -9.05318074 4.82607845 -13 4 C-13 3.67 -13 3.34 -13 3 C-11.58603098 2.49242138 -10.16868271 1.99425075 -8.75 1.5 C-7.96109375 1.2215625 -7.1721875 0.943125 -6.359375 0.65625 C-4 0 -4 0 0 0 Z " fill="#050B1B" transform="translate(523,275)"/>
<path d="M0 0 C0.66 0.33 1.32 0.66 2 1 C0.82255415 4.53233755 0.04394359 4.86308075 -3.0625 6.6875 C-3.79597656 7.12449219 -4.52945313 7.56148437 -5.28515625 8.01171875 C-5.85105469 8.33785156 -6.41695312 8.66398438 -7 9 C-7.33 7.68 -7.66 6.36 -8 5 C-7.13375 4.87625 -7.13375 4.87625 -6.25 4.75 C-3.3840696 3.79468987 -2.0009236 2.21530827 0 0 Z " fill="#0073E5" transform="translate(698,704)"/>
<path d="M0 0 C6.6 0 13.2 0 20 0 C20 0.33 20 0.66 20 1 C15.38 1 10.76 1 6 1 C6 1.66 6 2.32 6 3 C4.02 3 2.04 3 0 3 C0 2.01 0 1.02 0 0 Z " fill="#027DED" transform="translate(434,630)"/>
<path d="M0 0 C1.875 0.1875 1.875 0.1875 4 1 C6.21778318 5.07592585 6.08417836 8.2666342 5.625 12.8125 C5.51414062 13.97394531 5.40328125 15.13539063 5.2890625 16.33203125 C5.19367188 17.21246094 5.09828125 18.09289062 5 19 C4.67 19 4.34 19 4 19 C3.96261719 17.94039063 3.92523438 16.88078125 3.88671875 15.7890625 C3.82106742 14.40100576 3.75461979 13.01298651 3.6875 11.625 C3.66494141 10.92632812 3.64238281 10.22765625 3.61914062 9.5078125 C3.53015704 7.22711059 3.53015704 7.22711059 3 4 C2.01 3.34 1.02 2.68 0 2 C0 1.34 0 0.68 0 0 Z " fill="#0D9FF5" transform="translate(403,469)"/>
<path d="M0 0 C-0.33 0.66 -0.66 1.32 -1 2 C-3.50390625 2.4140625 -3.50390625 2.4140625 -6.5625 2.625 C-7.57441406 2.69976562 -8.58632813 2.77453125 -9.62890625 2.8515625 C-10.41136719 2.90054687 -11.19382812 2.94953125 -12 3 C-12 2.01 -12 1.02 -12 0 C-7.74433453 -1.16063604 -4.3164922 -0.76173392 0 0 Z " fill="#14C6EF" transform="translate(362,304)"/>
<path d="M0 0 C0.66 0.66 1.32 1.32 2 2 C1.071875 3.1446875 1.071875 3.1446875 0.125 4.3125 C-2.05597052 6.99625809 -2.05597052 6.99625809 -4 10 C-6.125 11.1875 -6.125 11.1875 -8 12 C-8.33 11.01 -8.66 10.02 -9 9 C-8.2575 8.62875 -7.515 8.2575 -6.75 7.875 C-3.52535535 5.67637865 -1.99221721 3.32036201 0 0 Z " fill="#017BEF" transform="translate(664,485)"/>
<path d="M0 0 C1 3 1 3 0.3125 5.0625 C-1.21259665 7.31383315 -2.50584728 8.00233891 -5 9 C-4.5206753 4.68607774 -3.2542015 2.83430453 0 0 Z " fill="#051A34" transform="translate(460,414)"/>
<path d="M0 0 C0.66 0.33 1.32 0.66 2 1 C-0.31 3.31 -2.62 5.62 -5 8 C-5.33 7.34 -5.66 6.68 -6 6 C-6.66 5.67 -7.32 5.34 -8 5 C-6 2 -6 2 -3.4375 1.375 C-2.2309375 1.189375 -2.2309375 1.189375 -1 1 C-0.67 0.67 -0.34 0.34 0 0 Z " fill="#0EC1FA" transform="translate(473,399)"/>
<path d="M0 0 C0.7734375 -0.00773438 1.546875 -0.01546875 2.34375 -0.0234375 C4.95159728 0.45844732 5.83871866 1.36229376 7.5 3.375 C6.5925 3.189375 5.685 3.00375 4.75 2.8125 C1.69744896 2.40157967 0.34989301 2.54761171 -2.5 3.375 C-4.16623639 3.41286901 -5.83397597 3.42127845 -7.5 3.375 C-5.1401145 0.51590795 -3.68467375 -0.03684674 0 0 Z " fill="#051531" transform="translate(512.5,207.625)"/>
<path d="M0 0 C0.66 0 1.32 0 2 0 C2.36923077 7.50769231 2.36923077 7.50769231 0.5 10 C0.005 10.33 -0.49 10.66 -1 11 C-1.125 3.375 -1.125 3.375 0 0 Z " fill="#12C2F3" transform="translate(273,432)"/>
<path d="M0 0 C0.33 1.32 0.66 2.64 1 4 C1.66 4.33 2.32 4.66 3 5 C2.34 6.65 1.68 8.3 1 10 C0.01 10 -0.98 10 -2 10 C-1.34 6.7 -0.68 3.4 0 0 Z " fill="#13C4EB" transform="translate(305,345)"/>
<path d="M0 0 C0.99 0.33 1.98 0.66 3 1 C-1.75 6.75 -1.75 6.75 -4 9 C-4.66 7.68 -5.32 6.36 -6 5 C-5.01 5 -4.02 5 -3 5 C-2.67 4.01 -2.34 3.02 -2 2 C-1.34 2 -0.68 2 0 2 C0 1.34 0 0.68 0 0 Z " fill="#0282F1" transform="translate(535,560)"/>
<path d="M0 0 C-3.732388 3.57011026 -8.0949989 4.10913442 -13 5 C-11.68 4.34 -10.36 3.68 -9 3 C-9 2.34 -9 1.68 -9 1 C-6.04335481 -0.4783226 -3.25770263 -0.06032783 0 0 Z " fill="#0DC0F3" transform="translate(551,340)"/>
<path d="M0 0 C0.86625 0.3403125 0.86625 0.3403125 1.75 0.6875 C1.75 1.3475 1.75 2.0075 1.75 2.6875 C-0.23 3.3475 -2.21 4.0075 -4.25 4.6875 C-4.91 4.0275 -5.57 3.3675 -6.25 2.6875 C-2.80384615 -0.38942308 -2.80384615 -0.38942308 0 0 Z " fill="#05182B" transform="translate(338.25,306.3125)"/>
<path d="M0 0 C0.66 0.33 1.32 0.66 2 1 C1.34 3.31 0.68 5.62 0 8 C-0.66 8 -1.32 8 -2 8 C-3.62514468 9.45833358 -3.62514468 9.45833358 -5 11 C-3.55049545 7.2089881 -1.84827434 3.6125362 0 0 Z " fill="#0168E3" transform="translate(715,682)"/>
<path d="M0 0 C0.33 0.66 0.66 1.32 1 2 C-6.625 4.125 -6.625 4.125 -10 3 C-6.48812804 0.59185923 -4.27343092 -0.36629408 0 0 Z " fill="#0166E0" transform="translate(689,712)"/>
<path d="M0 0 C0.26218749 3.14624993 0.24754367 4.61837017 -1.5 7.3125 C-2.2425 8.1478125 -2.2425 8.1478125 -3 9 C-3.66 8.67 -4.32 8.34 -5 8 C-3.91891892 0 -3.91891892 0 0 0 Z " fill="#04152F" transform="translate(278,591)"/>
<path d="M0 0 C0.66 0.99 1.32 1.98 2 3 C0.63016497 6.16115776 0.0109362 6.9927092 -3 9 C-2.44271087 5.65626525 -1.64826111 2.96687001 0 0 Z " fill="#08A8F9" transform="translate(411,521)"/>
<path d="M0 0 C0.33 0 0.66 0 1 0 C1.33 3.3 1.66 6.6 2 10 C1.34 10 0.68 10 0 10 C-0.19412181 8.52168779 -0.38012131 7.04230684 -0.5625 5.5625 C-0.66691406 4.73878906 -0.77132812 3.91507813 -0.87890625 3.06640625 C-0.91886719 2.38449219 -0.95882812 1.70257812 -1 1 C-0.67 0.67 -0.34 0.34 0 0 Z " fill="#0391E4" transform="translate(609,513)"/>
<path d="M0 0 C0.33 0 0.66 0 1 0 C0.67 4.29 0.34 8.58 0 13 C-1.88343932 9.23312136 -2.22057835 7.97041037 -2 4 C-1.34 4 -0.68 4 0 4 C0 2.68 0 1.36 0 0 Z " fill="#051631" transform="translate(405,493)"/>
<path d="M0 0 C0.66 0 1.32 0 2 0 C1.30058404 3.14737182 0.23921302 6.02588876 -1 9 C-1.99 9 -2.98 9 -4 9 C-2.80100302 5.9168649 -1.52299523 2.93720508 0 0 Z " fill="#0C9FEE" transform="translate(442,427)"/>
<path d="M0 0 C0.66 0.33 1.32 0.66 2 1 C2.3125 3.25 2.3125 3.25 2 6 C-0.5 8.3125 -0.5 8.3125 -3 10 C-2.67 9.443125 -2.34 8.88625 -2 8.3125 C-0.86788784 5.69449063 -0.92378177 3.82007437 -1 1 C-0.67 0.67 -0.34 0.34 0 0 Z " fill="#0DBAF5" transform="translate(444,424)"/>
<path d="M0 0 C0.99 0.66 1.98 1.32 3 2 C-0.465 4.97 -0.465 4.97 -4 8 C-4 6.35 -4 4.7 -4 3 C-2.68 3 -1.36 3 0 3 C0 2.01 0 1.02 0 0 Z " fill="#0C9DF8" transform="translate(508,360)"/>
<path d="M0 0 C0.99 0.33 1.98 0.66 3 1 C3 1.66 3 2.32 3 3 C0.33333333 4.33333333 -2.33333333 5.66666667 -5 7 C-5.66 6.34 -6.32 5.68 -7 5 C-6.030625 4.54625 -5.06125 4.0925 -4.0625 3.625 C-0.92920418 2.34213779 -0.92920418 2.34213779 0 0 Z " fill="#017AF1" transform="translate(488,661)"/>
<path d="M0 0 C-3.96 1.98 -3.96 1.98 -8 4 C-8.99 3.34 -9.98 2.68 -11 2 C-9.73392393 1.46770674 -8.46189588 0.94955456 -7.1875 0.4375 C-6.47980469 0.14746094 -5.77210938 -0.14257812 -5.04296875 -0.44140625 C-3 -1 -3 -1 0 0 Z " fill="#0490E6" transform="translate(476,624)"/>
<path d="M0 0 C-0.5623951 3.26189156 -1.4140505 4.91134848 -4 7 C-4.99 7.33 -5.98 7.66 -7 8 C-6 5 -6 5 -3 3 C-3.33 2.34 -3.66 1.68 -4 1 C-2 0 -2 0 0 0 Z " fill="#0AB0F4" transform="translate(368,507)"/>
<path d="M0 0 C0.33 1.32 0.66 2.64 1 4 C0.01 4.33 -0.98 4.66 -2 5 C-3.66710346 6.49985609 -3.66710346 6.49985609 -5 8 C-5.66 7.67 -6.32 7.34 -7 7 C-4.69 4.69 -2.38 2.38 0 0 Z " fill="#027CF3" transform="translate(655,497)"/>
<path d="M0 0 C0.66 0.33 1.32 0.66 2 1 C1.38125 1.433125 0.7625 1.86625 0.125 2.3125 C-2.2197245 3.99740483 -2.2197245 3.99740483 -4 7 C-4.99 6.67 -5.98 6.34 -7 6 C-2.25 1.125 -2.25 1.125 0 0 Z " fill="#050713" transform="translate(526,352)"/>
<path d="M0 0 C1.8125 0.1875 1.8125 0.1875 4 1 C5.8125 3.4375 5.8125 3.4375 7 6 C6.67 6.66 6.34 7.32 6 8 C4.9970458 6.85675161 3.99770973 5.71032809 3 4.5625 C2.443125 3.92441406 1.88625 3.28632813 1.3125 2.62890625 C0 1 0 1 0 0 Z " fill="#07ABEC" transform="translate(566,472)"/>
</svg>
